<?xml version="1.0" encoding="utf-8" standalone="no"?>
<!-- Generator: Adobe Illustrator 18.0.0, SVG Export Plug-In . SVG Version: 6.00 Build 0)  -->
<!DOCTYPE svg PUBLIC "-//W3C//DTD SVG 1.1//EN" "http://www.w3.org/Graphics/SVG/1.1/DTD/svg11.dtd">
<svg version="1.1" id="Layer_1" xmlns="http://www.w3.org/2000/svg" xmlns:xlink="http://www.w3.org/1999/xlink" x="0px" y="0px" 
	 viewBox="0 0 278.5 32.8" style="enable-background:new 0 0 278.5 32.8;" xml:space="preserve">
<g>
	<path style="fill:#FFFFFF;" d="M278.5,17.3c-0.2-5.9-5.1-10.7-11.1-10.7c-2.4,0-4.7,0.8-6.5,2.1V6.6h-4.6v26.2h4.6V17.7
		c0-3.6,2.9-6.5,6.5-6.5c3.6,0,6.5,2.9,6.5,6.5v15.1h4.6L278.5,17.3L278.5,17.3z"/>
	<path style="fill:#FFFFFF;" d="M173.5,4.6L173.5,4.6l11.9,0V0h-12.1v0c-5.1,0.1-9.2,4.3-9.2,9.4c0,2.8,1.2,5.3,3.2,7
		c-2,1.7-3.2,4.2-3.2,7c0,1.7,0.5,3.4,1.3,4.8H164v4.6h21.3v-4.6h-11.9v0c-2.6,0-4.7-2.1-4.7-4.7c0-2.6,2-4.6,4.6-4.7h12v-4.6h-12
		c-2.5-0.1-4.6-2.2-4.6-4.7C168.7,6.8,170.9,4.6,173.5,4.6z"/>
	<path style="fill:#FFFFFF;" d="M27.3,13.4C27.1,6,21.1,0,13.6,0c-3.5,0-6.6,1.3-9,3.4V0H0v32.8h4.6V13.7c0-5,4-9,9-9c5,0,9,4,9,9
		v19.1h4.6L27.3,13.4L27.3,13.4z"/>
	<rect x="222" y="0" style="fill:#FFFFFF;" width="4.6" height="32.8"/>
	<path style="fill:#FFFFFF;" d="M196.9,13.5L196.9,13.5l0,19.3h4.6V13.7c0-5,4-9,9-9V0C203,0,197,6.1,196.9,13.5z"/>
	<path style="fill:#FFFFFF;" d="M98.1,6.6v3.1v10c0,4.7-3.8,8.5-8.5,8.5c-4.7,0-8.5-3.8-8.5-8.5v-10V6.6h-4.6v13.1V20h0
		c0.2,7.1,6,12.8,13.1,12.8c7.1,0,12.9-5.7,13.1-12.8h0v-0.3V6.6H98.1z"/>
	<polygon style="fill:#FFFFFF;" points="114.3,0 114.3,13.1 114.3,26.2 116.6,26.2 118.9,26.2 118.9,15.5 118.9,4.7 125,4.7 
		131.1,4.7 131.1,12.2 131.1,20.6 133.4,22.3 135.7,20.6 135.7,12.2 135.7,4.7 141.8,4.7 147.9,4.7 147.9,15.5 147.9,26.2 
		150.2,26.2 152.5,26.2 152.5,13.1 152.5,0 	"/>
	<g>
		<rect x="239.1" y="13.1" style="fill:#FFFFFF;" width="4.6" height="19.7"/>
		<g>
			<path style="fill:#FFFFFF;" d="M244.7,3.3c0,1.8-1.5,3.3-3.3,3.3c-1.8,0-3.3-1.5-3.3-3.3c0-1.8,1.5-3.3,3.3-3.3
				C243.3,0,244.7,1.5,244.7,3.3z"/>
		</g>
	</g>
	<g>
		<path style="fill:#FFFFFF;" d="M64.8,22c0.1-0.8,0.2-1.5,0.2-2.3c0-0.8-0.1-1.6-0.2-2.3c-1.1-6.1-6.4-10.8-12.9-10.8
			c-6.5,0-11.8,4.7-12.9,10.8c-0.1,0.8-0.2,1.5-0.2,2.3c0,0.8,0.1,1.6,0.2,2.3c1.1,6.1,6.4,10.8,12.9,10.8c4.4,0,8.2-2.1,10.6-5.4
			l-3.7-2.7l0,0c-1.5,2.1-4,3.5-6.8,3.5c-3.9,0-7.2-2.6-8.2-6.2h16.3H64.8z M51.9,11.2c3.9,0,7.1,2.6,8.2,6.2H43.8
			C44.8,13.8,48,11.2,51.9,11.2z"/>
	</g>
</g>
</svg>
